<mxfile host="app.diagrams.net" modified="2024-06-09T22:06:14.505Z" agent="Mozilla/5.0 (Windows NT 10.0; Win64; x64) AppleWebKit/537.36 (KHTML, like Gecko) Chrome/125.0.0.0 Safari/537.36 Edg/125.0.0.0" etag="8GwEunY-F7ircZ7lA1uN" version="24.5.2" type="device">
  <diagram name="Page-1" id="pXHzV4vruWu7nsp7PeWh">
    <mxGraphModel dx="1377" dy="833" grid="1" gridSize="10" guides="1" tooltips="1" connect="1" arrows="1" fold="1" page="1" pageScale="1" pageWidth="850" pageHeight="1100" math="0" shadow="0">
      <root>
        <mxCell id="0" />
        <mxCell id="1" parent="0" />
        <mxCell id="5inrHGd8FxkL76Y0GAfl-4" style="edgeStyle=orthogonalEdgeStyle;rounded=0;orthogonalLoop=1;jettySize=auto;html=1;exitX=1;exitY=0.5;exitDx=0;exitDy=0;entryX=0;entryY=0.5;entryDx=0;entryDy=0;" edge="1" parent="1" source="5inrHGd8FxkL76Y0GAfl-1" target="5inrHGd8FxkL76Y0GAfl-3">
          <mxGeometry relative="1" as="geometry" />
        </mxCell>
        <mxCell id="5inrHGd8FxkL76Y0GAfl-40" style="edgeStyle=orthogonalEdgeStyle;rounded=0;orthogonalLoop=1;jettySize=auto;html=1;exitX=0.75;exitY=1;exitDx=0;exitDy=0;entryX=0;entryY=0.5;entryDx=0;entryDy=0;" edge="1" parent="1" source="5inrHGd8FxkL76Y0GAfl-1" target="5inrHGd8FxkL76Y0GAfl-36">
          <mxGeometry relative="1" as="geometry" />
        </mxCell>
        <mxCell id="5inrHGd8FxkL76Y0GAfl-41" value="Signed Transaction" style="edgeLabel;html=1;align=center;verticalAlign=middle;resizable=0;points=[];" vertex="1" connectable="0" parent="5inrHGd8FxkL76Y0GAfl-40">
          <mxGeometry x="0.0078" y="-3" relative="1" as="geometry">
            <mxPoint as="offset" />
          </mxGeometry>
        </mxCell>
        <mxCell id="5inrHGd8FxkL76Y0GAfl-1" value="FrontEnd" style="rounded=0;whiteSpace=wrap;html=1;" vertex="1" parent="1">
          <mxGeometry x="10" y="270" width="120" height="60" as="geometry" />
        </mxCell>
        <mxCell id="5inrHGd8FxkL76Y0GAfl-35" style="edgeStyle=orthogonalEdgeStyle;rounded=0;orthogonalLoop=1;jettySize=auto;html=1;exitX=0.375;exitY=0;exitDx=0;exitDy=0;entryX=0.5;entryY=1;entryDx=0;entryDy=0;" edge="1" parent="1" source="5inrHGd8FxkL76Y0GAfl-3" target="5inrHGd8FxkL76Y0GAfl-33">
          <mxGeometry relative="1" as="geometry" />
        </mxCell>
        <mxCell id="5inrHGd8FxkL76Y0GAfl-3" value="API Gateway&lt;br&gt;&amp;nbsp;(Kong or AWS)" style="shape=hexagon;perimeter=hexagonPerimeter2;whiteSpace=wrap;html=1;fixedSize=1;" vertex="1" parent="1">
          <mxGeometry x="210" y="240" width="120" height="80" as="geometry" />
        </mxCell>
        <mxCell id="5inrHGd8FxkL76Y0GAfl-6" value="AWS Kubernetes Cluster" style="whiteSpace=wrap;html=1;aspect=fixed;verticalAlign=top;" vertex="1" parent="1">
          <mxGeometry x="380" y="110" width="420" height="420" as="geometry" />
        </mxCell>
        <mxCell id="5inrHGd8FxkL76Y0GAfl-12" style="edgeStyle=orthogonalEdgeStyle;rounded=0;orthogonalLoop=1;jettySize=auto;html=1;exitX=0.5;exitY=1;exitDx=0;exitDy=0;entryX=0.5;entryY=0;entryDx=0;entryDy=0;" edge="1" parent="1" source="5inrHGd8FxkL76Y0GAfl-7" target="5inrHGd8FxkL76Y0GAfl-8">
          <mxGeometry relative="1" as="geometry" />
        </mxCell>
        <mxCell id="5inrHGd8FxkL76Y0GAfl-7" value="User Authentication Service&lt;br&gt;(Container)" style="rounded=0;whiteSpace=wrap;html=1;" vertex="1" parent="1">
          <mxGeometry x="410" y="150" width="120" height="60" as="geometry" />
        </mxCell>
        <mxCell id="5inrHGd8FxkL76Y0GAfl-11" style="edgeStyle=orthogonalEdgeStyle;rounded=0;orthogonalLoop=1;jettySize=auto;html=1;exitX=0.25;exitY=0;exitDx=0;exitDy=0;entryX=0.25;entryY=1;entryDx=0;entryDy=0;" edge="1" parent="1" source="5inrHGd8FxkL76Y0GAfl-8" target="5inrHGd8FxkL76Y0GAfl-7">
          <mxGeometry relative="1" as="geometry" />
        </mxCell>
        <mxCell id="5inrHGd8FxkL76Y0GAfl-14" style="edgeStyle=orthogonalEdgeStyle;rounded=0;orthogonalLoop=1;jettySize=auto;html=1;exitX=1;exitY=0.25;exitDx=0;exitDy=0;entryX=1;entryY=0;entryDx=0;entryDy=0;" edge="1" parent="1" source="5inrHGd8FxkL76Y0GAfl-8" target="5inrHGd8FxkL76Y0GAfl-13">
          <mxGeometry relative="1" as="geometry" />
        </mxCell>
        <mxCell id="5inrHGd8FxkL76Y0GAfl-15" value="Produce Message" style="edgeLabel;html=1;align=center;verticalAlign=middle;resizable=0;points=[];" vertex="1" connectable="0" parent="5inrHGd8FxkL76Y0GAfl-14">
          <mxGeometry x="-0.1059" y="-1" relative="1" as="geometry">
            <mxPoint as="offset" />
          </mxGeometry>
        </mxCell>
        <mxCell id="5inrHGd8FxkL76Y0GAfl-8" value="API Server&lt;br&gt;(Container)" style="rounded=0;whiteSpace=wrap;html=1;" vertex="1" parent="1">
          <mxGeometry x="410" y="290" width="120" height="60" as="geometry" />
        </mxCell>
        <mxCell id="5inrHGd8FxkL76Y0GAfl-9" style="edgeStyle=orthogonalEdgeStyle;rounded=0;orthogonalLoop=1;jettySize=auto;html=1;exitX=1;exitY=0.5;exitDx=0;exitDy=0;entryX=0;entryY=0.75;entryDx=0;entryDy=0;" edge="1" parent="1" source="5inrHGd8FxkL76Y0GAfl-3" target="5inrHGd8FxkL76Y0GAfl-8">
          <mxGeometry relative="1" as="geometry">
            <Array as="points">
              <mxPoint x="360" y="280" />
              <mxPoint x="360" y="315" />
            </Array>
          </mxGeometry>
        </mxCell>
        <mxCell id="5inrHGd8FxkL76Y0GAfl-13" value="Apache Kafka&lt;br&gt;(Container)" style="rounded=0;whiteSpace=wrap;html=1;" vertex="1" parent="1">
          <mxGeometry x="640" y="340" width="120" height="60" as="geometry" />
        </mxCell>
        <mxCell id="5inrHGd8FxkL76Y0GAfl-16" value="user database" style="shape=cylinder3;whiteSpace=wrap;html=1;boundedLbl=1;backgroundOutline=1;size=15;" vertex="1" parent="1">
          <mxGeometry x="280" y="20" width="60" height="80" as="geometry" />
        </mxCell>
        <mxCell id="5inrHGd8FxkL76Y0GAfl-17" style="edgeStyle=orthogonalEdgeStyle;rounded=0;orthogonalLoop=1;jettySize=auto;html=1;exitX=0.25;exitY=0;exitDx=0;exitDy=0;entryX=1;entryY=0.5;entryDx=0;entryDy=0;entryPerimeter=0;" edge="1" parent="1" source="5inrHGd8FxkL76Y0GAfl-7" target="5inrHGd8FxkL76Y0GAfl-16">
          <mxGeometry relative="1" as="geometry" />
        </mxCell>
        <mxCell id="5inrHGd8FxkL76Y0GAfl-24" style="edgeStyle=orthogonalEdgeStyle;rounded=0;orthogonalLoop=1;jettySize=auto;html=1;exitX=1;exitY=0.75;exitDx=0;exitDy=0;entryX=0.5;entryY=1;entryDx=0;entryDy=0;" edge="1" parent="1" source="5inrHGd8FxkL76Y0GAfl-26" target="5inrHGd8FxkL76Y0GAfl-13">
          <mxGeometry relative="1" as="geometry" />
        </mxCell>
        <mxCell id="5inrHGd8FxkL76Y0GAfl-25" value="subscribe to topics" style="edgeLabel;html=1;align=center;verticalAlign=middle;resizable=0;points=[];" vertex="1" connectable="0" parent="5inrHGd8FxkL76Y0GAfl-24">
          <mxGeometry x="-0.0083" y="3" relative="1" as="geometry">
            <mxPoint x="1" as="offset" />
          </mxGeometry>
        </mxCell>
        <mxCell id="5inrHGd8FxkL76Y0GAfl-30" style="edgeStyle=orthogonalEdgeStyle;rounded=0;orthogonalLoop=1;jettySize=auto;html=1;exitX=0.855;exitY=0;exitDx=0;exitDy=4.35;exitPerimeter=0;entryX=0.75;entryY=1;entryDx=0;entryDy=0;" edge="1" parent="1" source="5inrHGd8FxkL76Y0GAfl-21" target="5inrHGd8FxkL76Y0GAfl-26">
          <mxGeometry relative="1" as="geometry" />
        </mxCell>
        <mxCell id="5inrHGd8FxkL76Y0GAfl-21" value="user&lt;br&gt;Topics" style="shape=cylinder3;whiteSpace=wrap;html=1;boundedLbl=1;backgroundOutline=1;size=15;" vertex="1" parent="1">
          <mxGeometry x="455" y="570" width="50" height="60" as="geometry" />
        </mxCell>
        <mxCell id="5inrHGd8FxkL76Y0GAfl-28" style="edgeStyle=orthogonalEdgeStyle;rounded=0;orthogonalLoop=1;jettySize=auto;html=1;exitX=0;exitY=0.75;exitDx=0;exitDy=0;entryX=0.25;entryY=1;entryDx=0;entryDy=0;" edge="1" parent="1" source="5inrHGd8FxkL76Y0GAfl-26" target="5inrHGd8FxkL76Y0GAfl-1">
          <mxGeometry relative="1" as="geometry" />
        </mxCell>
        <mxCell id="5inrHGd8FxkL76Y0GAfl-26" value="Message Consumption&amp;nbsp;&lt;br&gt;(Container)" style="rounded=0;whiteSpace=wrap;html=1;" vertex="1" parent="1">
          <mxGeometry x="420" y="420" width="120" height="60" as="geometry" />
        </mxCell>
        <mxCell id="5inrHGd8FxkL76Y0GAfl-27" style="edgeStyle=orthogonalEdgeStyle;rounded=0;orthogonalLoop=1;jettySize=auto;html=1;exitX=0.5;exitY=1;exitDx=0;exitDy=0;entryX=0;entryY=0.5;entryDx=0;entryDy=0;" edge="1" parent="1" source="5inrHGd8FxkL76Y0GAfl-1" target="5inrHGd8FxkL76Y0GAfl-26">
          <mxGeometry relative="1" as="geometry" />
        </mxCell>
        <mxCell id="5inrHGd8FxkL76Y0GAfl-29" style="edgeStyle=orthogonalEdgeStyle;rounded=0;orthogonalLoop=1;jettySize=auto;html=1;exitX=0.25;exitY=1;exitDx=0;exitDy=0;entryX=0.145;entryY=0;entryDx=0;entryDy=4.35;entryPerimeter=0;" edge="1" parent="1" source="5inrHGd8FxkL76Y0GAfl-26" target="5inrHGd8FxkL76Y0GAfl-21">
          <mxGeometry relative="1" as="geometry" />
        </mxCell>
        <mxCell id="5inrHGd8FxkL76Y0GAfl-31" style="edgeStyle=orthogonalEdgeStyle;rounded=0;orthogonalLoop=1;jettySize=auto;html=1;exitX=0.5;exitY=0;exitDx=0;exitDy=0;entryX=1.008;entryY=0.383;entryDx=0;entryDy=0;entryPerimeter=0;" edge="1" parent="1" source="5inrHGd8FxkL76Y0GAfl-26" target="5inrHGd8FxkL76Y0GAfl-7">
          <mxGeometry relative="1" as="geometry">
            <Array as="points">
              <mxPoint x="500" y="420" />
              <mxPoint x="500" y="390" />
              <mxPoint x="570" y="390" />
              <mxPoint x="570" y="173" />
            </Array>
          </mxGeometry>
        </mxCell>
        <mxCell id="5inrHGd8FxkL76Y0GAfl-32" style="edgeStyle=orthogonalEdgeStyle;rounded=0;orthogonalLoop=1;jettySize=auto;html=1;exitX=1;exitY=0;exitDx=0;exitDy=0;entryX=0.858;entryY=0.033;entryDx=0;entryDy=0;entryPerimeter=0;" edge="1" parent="1" source="5inrHGd8FxkL76Y0GAfl-7" target="5inrHGd8FxkL76Y0GAfl-26">
          <mxGeometry relative="1" as="geometry">
            <Array as="points">
              <mxPoint x="590" y="150" />
              <mxPoint x="590" y="400" />
              <mxPoint x="523" y="400" />
            </Array>
          </mxGeometry>
        </mxCell>
        <mxCell id="5inrHGd8FxkL76Y0GAfl-33" value="ACL" style="text;html=1;align=center;verticalAlign=middle;whiteSpace=wrap;rounded=0;" vertex="1" parent="1">
          <mxGeometry x="230" y="180" width="60" height="30" as="geometry" />
        </mxCell>
        <mxCell id="5inrHGd8FxkL76Y0GAfl-36" value="RPC Node" style="rounded=0;whiteSpace=wrap;html=1;" vertex="1" parent="1">
          <mxGeometry x="250" y="650" width="120" height="60" as="geometry" />
        </mxCell>
        <mxCell id="5inrHGd8FxkL76Y0GAfl-42" value="on chain&lt;br&gt;Smart Contract" style="shape=cube;whiteSpace=wrap;html=1;boundedLbl=1;backgroundOutline=1;darkOpacity=0.05;darkOpacity2=0.1;" vertex="1" parent="1">
          <mxGeometry x="620" y="635" width="120" height="80" as="geometry" />
        </mxCell>
        <mxCell id="5inrHGd8FxkL76Y0GAfl-45" style="edgeStyle=orthogonalEdgeStyle;rounded=0;orthogonalLoop=1;jettySize=auto;html=1;exitX=1;exitY=0.5;exitDx=0;exitDy=0;entryX=-0.017;entryY=0.563;entryDx=0;entryDy=0;entryPerimeter=0;" edge="1" parent="1" source="5inrHGd8FxkL76Y0GAfl-36" target="5inrHGd8FxkL76Y0GAfl-42">
          <mxGeometry relative="1" as="geometry" />
        </mxCell>
        <mxCell id="5inrHGd8FxkL76Y0GAfl-46" value="Encrypt" style="shape=trapezoid;perimeter=trapezoidPerimeter;whiteSpace=wrap;html=1;fixedSize=1;" vertex="1" parent="1">
          <mxGeometry x="610" y="280" width="70" height="20" as="geometry" />
        </mxCell>
        <mxCell id="5inrHGd8FxkL76Y0GAfl-47" value="Decrypt" style="shape=trapezoid;perimeter=trapezoidPerimeter;whiteSpace=wrap;html=1;fixedSize=1;direction=west;" vertex="1" parent="1">
          <mxGeometry x="620" y="470" width="70" height="20" as="geometry" />
        </mxCell>
      </root>
    </mxGraphModel>
  </diagram>
</mxfile>
